#!OML:ASF H:\ManfredETheater\Project 1\Capture day 1\Session 1\subject.ASF
:FULLY-SPECIFIED
:DEGREES
108
root 1.69716 17.1224 34.1732 -175.654 -4.38287 178.965
lowerback -0.284655 -0.998433 -2.69505
upperback -4.06459 -1.50835 1.34487
thorax -3.92756 -0.703966 2.94983
lowerneck -19.4872 -1.05942 -2.6973
upperneck 24.0706 -1.67028 1.51077
head 11.0527 -1.0606 0.702256
rclavicle -2.23136e-014 -2.78299e-015
rhumerus -37.5887 -8.42611 -80.3938
rradius 28.4295
rwrist 3.99562
rhand -18.7673 -11.4376
rfingers 7.12502
rthumb 7.52979 -41.2836
lclavicle -2.23136e-014 -2.78299e-015
lhumerus -32.9829 5.29928 88.7683
lradius 26.7839
lwrist -17.6573
lhand -10.1216 10.1152
lfingers 7.12502
lthumb 15.8665 39.4851
rfemur -12.8716 -0.705368 16.4555
rtibia 34.1051
rfoot -21.7299 -12.9345
rtoes 5.80877
lfemur -15.7437 -4.52641 -18.7468
ltibia 36.3097
lfoot -21.6734 2.44657
ltoes 0.387349
109
root 1.69624 17.1197 34.1738 -175.689 -4.39845 179.014
lowerback -0.195062 -0.996776 -2.62867
upperback -4.03554 -1.50286 1.36334
thorax -3.94921 -0.701705 2.93311
lowerneck -19.4988 -1.06418 -2.69739
upperneck 24.0345 -1.6689 1.50119
head 11.0413 -1.05918 0.699258
rclavicle 3.72721e-016 -9.14409e-015
rhumerus -37.5645 -8.36393 -80.426
rradius 28.4753
rwrist 3.94762
rhand -18.7652 -11.4008
rfingers 7.12502
rthumb 7.5318 -41.2467
lclavicle 3.72721e-016 -9.14409e-015
lhumerus -32.9759 5.31932 88.7506
lradius 26.7658
lwrist -17.6748
lhand -10.135 10.1204
lfingers 7.12502
lthumb 15.8537 39.4913
rfemur -12.851 -0.724848 16.5069
rtibia 34.1314
rfoot -21.7429 -12.9269
rtoes 5.784
lfemur -15.7655 -4.5347 -18.699
ltibia 36.4033
lfoot -21.7078 2.44818
ltoes 0.372783
110
root 1.69521 17.1171 34.174 -175.723 -4.40621 179.065
lowerback -0.113737 -0.994362 -2.56194
upperback -4.00683 -1.49624 1.38423
thorax -3.96658 -0.699033 2.91847
lowerneck -19.4858 -1.06564 -2.70129
upperneck 23.9895 -1.6636 1.49429
head 11.0219 -1.05635 0.698537
rclavicle -1.13804e-014 4.77083e-015
rhumerus -37.5461 -8.28881 -80.4591
rradius 28.52
rwrist 3.90062
rhand -18.7619 -11.3347
rfingers 7.12502
rthumb 7.53494 -41.1804
lclavicle -1.13804e-014 4.77083e-015
lhumerus -32.9759 5.34757 88.7322
lradius 26.7482
lwrist -17.6959
lhand -10.1521 10.1245
lfingers 7.12502
lthumb 15.8372 39.4968
rfemur -12.8269 -0.737886 16.5595
rtibia 34.1504
rfoot -21.753 -12.9177
rtoes 5.76222
lfemur -15.7797 -4.54308 -18.6507
ltibia 36.4889
lfoot -21.743 2.46155
ltoes 0.358869
111
root 1.69407 17.1149 34.1737 -175.757 -4.40729 179.117
lowerback -0.0391618 -0.99016 -2.49592
upperback -3.97696 -1.48705 1.40571
thorax -3.97907 -0.695191 2.90455
lowerneck -19.4601 -1.06549 -2.70578
upperneck 23.9402 -1.65673 1.48817
head 10.9984 -1.05295 0.698469
rclavicle 4.32357e-015 3.57812e-015
rhumerus -37.5286 -8.20969 -80.4923
rradius 28.5611
rwrist 3.85669
rhand -18.7597 -11.2618
rfingers 7.12502
rthumb 7.53714 -41.1075
lclavicle 4.32357e-015 3.57812e-015
lhumerus -32.9774 5.37842 88.7142
lradius 26.7292
lwrist -17.7186
lhand -10.1683 10.1358
lfingers 7.12502
lthumb 15.8215 39.5093
rfemur -12.7991 -0.745791 16.6119
rtibia 34.1633
rfoot -21.7615 -12.908
rtoes 5.73582
lfemur -15.7848 -4.55226 -18.6034
ltibia 36.5642
lfoot -21.779 2.48529
ltoes 0.34936
112
root 1.69291 17.1128 34.1729 -175.786 -4.40218 179.162
lowerback 0.0240583 -0.98415 -2.43794
upperback -3.94332 -1.47524 1.42582
thorax -3.98125 -0.689984 2.89328
lowerneck -19.4333 -1.06502 -2.7117
upperneck 23.8893 -1.64953 1.4844
head 10.9741 -1.04918 0.699557
rclavicle 2.37051e-014 -3.57812e-015
rhumerus -37.5043 -8.13159 -80.5253
rradius 28.5965
rwrist 3.8165
rhand -18.761 -11.189
rfingers 7.12502
rthumb 7.53581 -41.0348
lclavicle 2.37051e-014 -3.57812e-015
lhumerus -32.9737 5.41073 88.6974
lradius 26.7089
lwrist -17.7444
lhand -10.1867 10.1447
lfingers 7.12502
lthumb 15.8038 39.5197
rfemur -12.7719 -0.750897 16.6566
rtibia 34.172
rfoot -21.7695 -12.8957
rtoes 5.71263
lfemur -15.7835 -4.56167 -18.5636
ltibia 36.6271
lfoot -21.8146 2.51576
ltoes 0.343227
113
root 1.69177 17.1111 34.1714 -175.808 -4.39101 179.199
lowerback 0.0729598 -0.975965 -2.38893
upperback -3.90701 -1.46048 1.44333
thorax -3.97262 -0.683266 2.88384
lowerneck -19.4112 -1.06431 -2.71535
upperneck 23.8409 -1.64251 1.48029
head 10.9517 -1.0453 0.700093
rclavicle -3.37934e-015 1.23246e-014
rhumerus -37.4737 -8.06035 -80.5568
rradius 28.6248
rwrist 3.78356
rhand -18.766 -11.1299
rfingers 7.12502
rthumb 7.53106 -40.9759
lclavicle -3.37934e-015 1.23246e-014
lhumerus -32.9643 5.44031 88.6823
lradius 26.6875
lwrist -17.7686
lhand -10.2019 10.156
lfingers 7.12502
lthumb 15.7892 39.5321
rfemur -12.7502 -0.753797 16.6923
rtibia 34.1787
rfoot -21.7775 -12.8813
rtoes 5.68632
lfemur -15.7795 -4.56721 -18.5319
ltibia 36.6765
lfoot -21.8486 2.54707
ltoes 0.346588
